/* XPM */
static char *_672615885090[] = {
/* columns rows colors chars-per-pixel */
"32 32 81 1 ",
"  c #2F2C2C",
". c #312927",
"X c #302A2E",
"o c gray30",
"O c #5B524D",
"+ c #545555",
"@ c #555656",
"# c #5D5354",
"$ c #575858",
"% c #585959",
"& c #5A5B5B",
"* c #5D5E5E",
"= c #616262",
"- c #636464",
"; c #666767",
": c #676868",
"> c #696A6A",
", c #7D7371",
"< c #7E7674",
"1 c #A93B3A",
"2 c #E3472E",
"3 c #E4715F",
"4 c #788586",
"5 c #7C8A8B",
"6 c #818F8F",
"7 c #849293",
"8 c #879596",
"9 c #86969F",
"0 c #87979F",
"q c #889798",
"w c #8B9A9B",
"e c #8999A1",
"r c #8B9BA4",
"t c #8C9CA5",
"y c #8D9DA6",
"u c #8E9EA7",
"i c #8F9FA9",
"p c #8FA0A9",
"a c #90A1AA",
"s c #91A1AB",
"d c #91A2AC",
"f c #92A3AC",
"g c #92A4AD",
"h c #93A4AE",
"j c #94A5AE",
"k c #94A6AF",
"l c #95A6B0",
"z c #96A7B1",
"x c #96A8B1",
"c c #97A8B2",
"v c #97A9B3",
"b c #98AAB3",
"n c #99AAB4",
"m c #99ABB5",
"M c #9AACB6",
"N c #9BADB7",
"B c #ADB5BA",
"V c #AEB6BB",
"C c #B0B9BE",
"Z c #B2BABF",
"A c #E2A197",
"S c #B3BBC0",
"D c #B4BCC1",
"F c #B5BEC3",
"G c #B6BFC4",
"H c #B9C1C6",
"J c #BDC6CB",
"K c #BEC6CC",
"L c #C2CBD0",
"P c #C3CDD2",
"I c #C6CFD5",
"U c #C8D2D7",
"Y c #CAD4D9",
"T c #CCD5DB",
"R c #CDD7DD",
"E c #CFD9DF",
"W c #E9D1CE",
"Q c #D0DAE0",
"! c #D2DBE1",
"~ c #D2DCE2",
"^ c #D4DEE4",
/* pixels */
"^^NNNNNNNNNNNNNNMnvzgaure09444&G",
"^NNNNNNNNNNNNNNNMmbclhsiytrrr5*J",
"^NNNNNNNNNNNNNNNMMmbczjfdaapp6=P",
"^NNNNNNNNNNNNNNNMMMmbvxlkjjhh7-U",
"^NNNNNNNNNNNNNNNNNNNNNbvvccxx8;R",
"^NNNNNNNNNNNNNNNNNNMMMbvvccxx8;R",
"^NNNNNNNNNOOO<X###,NNNNNNNNNNw>^",
"^NNNNNNNNNNNXXX##.,XXXXNNNNNNw>^",
"^NNNNNNNNNNNNNX,,,,NNXXXNNNNNw>^",
"^NNNNNNNNNNNNXX  31NNNNXXNNNNw>^",
"^NNNNNNNNNNNNXX  31NNNNXXNNNNw>^",
"^NNNNNNNNNNNXNN  31 NNNNXNNNNw>^",
"^NNNNNNNNNNNNN AA312 NNNXNNNNw>^",
"^NNNNNNNNNNNNN2AA3122  NXNNNNw>^",
"^NNNNNNNNNNNNN2AA3212  XXNNNNw>^",
"^NNNNNNNNNNNNN2AA3212  XXNNNNw>^",
"^NNNNNNNNNNNNN oooo o  #XNNNNw>^",
"^NNNNNNNNNNNNN2AA3212  XXNNNNw>^",
"^NNNNNNNNNNNNN2AA3212  XNNNNNw>^",
"^NNNNNNNNNNNNNWWWW212  XNNNNNw>^",
"^NNNNNNNNNNNNNWWWW212  XNNNNNw>^",
"^NNNNNNNNNNNNNWWWW212  XNNNNNw>^",
"^NNNNNNNNNNNNNWWWW212  XXNNNNw>^",
"^NNNNNNNNNNNNNWWWW212  #XNNNNw>^",
"^NNNNNNNNNNNNN2AA3212  XXNNNNw>^",
"^NNNNNNNNNNNNN2AA3212  XXNNNNw>^",
"^NNNNNNNNNNNNN2AA3212  XNNNNNw>^",
"^NNNNNNNNNNNNNooooo o  NNNNNNw>^",
"^^NNNNNNNNNNNNNNNNNNNNNNNNNNNw>^",
"^^NNNNNNNNNNNNNNNNNNNNNNNNNNNw>^",
"^^NNNNNNNNNNNNNNNNNNNNNNNNNNww>^",
"^^NNNNNNNNNNNNNNNNNNNNNNNNNNww>^"
};
