/* XPM */
static char *_672625458656[] = {
/* columns rows colors chars-per-pixel */
"39 33 166 2 ",
"   c #9BADB7",
".  c #18191F",
"X  c #0C1122",
"o  c #0C1629",
"O  c #111324",
"+  c #171822",
"@  c #1D1E23",
"#  c #141729",
"$  c #151A2B",
"%  c #1A1C2C",
"&  c #1B1E30",
"*  c #291628",
"=  c #231D2E",
"-  c #1E202F",
";  c #1C2335",
":  c #202020",
">  c #25242E",
",  c #2D2D2D",
"<  c #212435",
"1  c #292B39",
"2  c #312434",
"3  c #3A2335",
"4  c #343434",
"5  c #3A3A3A",
"6  c #421E31",
"7  c #452436",
"8  c #4A2638",
"9  c #4F2C3F",
"0  c #54293B",
"q  c #403B38",
"w  c #622D3F",
"e  c #792837",
"r  c #4B433B",
"t  c #252C45",
"y  c #282E45",
"u  c #2C324C",
"i  c #373746",
"p  c #2D3651",
"a  c #2E3C57",
"s  c #333C57",
"d  c #393C57",
"f  c #343D59",
"g  c #511D5C",
"h  c #482F44",
"j  c #732E41",
"k  c #633348",
"l  c #7E3647",
"z  c #6A3D55",
"x  c #3E404D",
"c  c #324462",
"v  c #354B6E",
"b  c #364D70",
"n  c #424242",
"m  c gray29",
"M  c #545454",
"N  c #5C5D5D",
"B  c #5D5F69",
"V  c #745F6C",
"C  c #656565",
"Z  c #6D6D6D",
"A  c #6C6E78",
"S  c #6F7079",
"D  c #717171",
"F  c #77787C",
"G  c #872D42",
"H  c #8B3549",
"J  c #90364A",
"K  c #8D3D53",
"L  c #933E54",
"P  c #9B3F54",
"I  c #AA2D44",
"U  c #AE364C",
"Y  c #A63A4F",
"T  c #B3344A",
"R  c #B3394F",
"E  c #A53C51",
"W  c #AC3D52",
"Q  c #B23E53",
"!  c #BA3F55",
"~  c #844853",
"^  c #B44156",
"/  c #BB4055",
"(  c #B05059",
")  c #9B684C",
"_  c #BE4D61",
"`  c #B95365",
"'  c #8E6C77",
"]  c #BD6071",
"[  c #C64257",
"{  c #C55154",
"}  c #C76A4E",
"|  c #CB7F56",
" . c #ED7655",
".. c #EF7A56",
"X. c #C66375",
"o. c #CA976D",
"O. c #F39360",
"+. c #FA9660",
"@. c #D3AE68",
"#. c #EFAE68",
"$. c #F8BD6E",
"%. c #FDBD70",
"&. c #FDC26D",
"*. c #F5C876",
"=. c #FFCC76",
"-. c #FFD377",
";. c #FFD979",
":. c #396EA5",
">. c #3A70A5",
",. c #767A82",
"<. c #B37E8A",
"1. c #4886A5",
"2. c #5094A3",
"3. c #3C8ED6",
"4. c #3E91D7",
"5. c #3FA5FB",
"6. c #56B4D7",
"7. c #41A7F7",
"8. c #42ABFD",
"9. c #65CDD6",
"0. c #5FD2F7",
"q. c #61D8FD",
"w. c #72F2F7",
"e. c #76F9FD",
"r. c #838386",
"t. c #8B8B8B",
"y. c #9B8489",
"u. c #858A9A",
"i. c #99999B",
"p. c #B19B9F",
"a. c #A3A3A3",
"s. c #A7A7A9",
"d. c #AEB0AF",
"f. c #AFAFB4",
"g. c #B1B2B5",
"h. c #B3B4B8",
"j. c #BAB7BC",
"k. c #CC8390",
"l. c #C2B7BC",
"z. c #E0AAB4",
"x. c #FED58A",
"c. c #F7CF90",
"v. c #C1C2C1",
"b. c #C6C8CF",
"n. c #D3C9CA",
"m. c #DBD1C0",
"M. c #C9CBD1",
"N. c #CED1D4",
"B. c #D4D5D5",
"V. c #DCDBDC",
"C. c #E9C5CC",
"Z. c #E5D7DA",
"A. c #E2DFDE",
"S. c #FCEACD",
"D. c #DDDEE1",
"F. c #DAE6E9",
"G. c #DEF0F2",
"H. c #E4E3E4",
"J. c #EFE0E3",
"K. c #ECEDED",
"L. c #F3E6E8",
"P. c #F5E7EA",
"I. c #E1F8FA",
"U. c #F2F2F2",
"Y. c #FAF7F0",
"T. c #FEFEFE",
/* pixels */
"                                                                              ",
"                              r s.a.a.a.a.s.r.                                ",
"                              M T.T.T.T.T.T.B.                                ",
"          g.B.N.N.N.N.B.B.B.n.m.x.x.x.x.x.x.c.B.B.V.N                         ",
"      , 4 n.P.P.L.L.L.L.H.H.Y.S.&.&.%.$.$.&.c.H.H.K.D 4                       ",
"      a.T.] ^ ^ ^ ^ ^ ^ 3 > *.%. .....{ R ..} % - + g.Y.5                     ",
"  5 N p.C.` R W Q R W ! 3 > #.#.O.O.+.( P O.| # % O 2.z.Z M                   ",
"  D T.k.I W Q ^ W Q Q ! 3 > O.+.-.-.;.V g &.@.# % % O + H.A.                  ",
"  Z T.k.U W Q W ^ W Q ^ 3 % e ) -.=.-.o.] =.@.# % % $ % V.V.                  ",
"  Z T.k.U Q Q Q Q Q Q ! 3 $ o r ;.-.-.;.;.;.@.# % % % % V.V.                  ",
"  Z T.k.U Q Q Q W Q Q ! 3 $ $ < r r r r r r q % $ % $ % V.V.                  ",
"  Z T.k.U ^ W Q Q Q W E 3 % = = % % % - - - = = = % % % V.V., , 4 , , >       ",
"  Z T.k.R ! ^ Q ^ / w @ $ = E Q R R W W W W W Q j $ $ % V.T.U.U.U.K.U.n       ",
"  Z T.<.G H H H H J 9 ; ; 1 K L L L L L L L L P k ; < < h.M.b.b.b.b.M.Z m     ",
"  Z T.A X $ $ $ $ # y c s s s a a a a a a a a a a f f f p u y u u y t V.K.    ",
"  Z T.A O % % % % % y s s s s s s s s s s s s s s s s f s c >.:.>.1.2.F.A.,   ",
"  Z T.A X % % @ % % y f s s s s s s s s s s s s s s s s s v 8.8.5.q.e.I.A.>   ",
"  Z T.S X % % % % @ ; < p f s s s s s s s s s f s s s s s v 7.7.5.0.w.I.A.    ",
"  Z T.S % - - % % % % % p d s s s f s s s s s s s s s s s v 7.7.5.0.e.G.A.    ",
"  > > s.Y.i X $ 7 W E Y P ^ d s s s s s s s s s s f f f s b 8.7.5.0.e.G.A.,   ",
"      t.B.B x $ 8 ! Q Q Q W s s s s a s s s s s s u p u u c 4.4.3.6.9.G.A.    ",
"          V.K.O 3 ! Q Q ^ E s a a a a a a a a a t % % % @ & u u u u t D.Y.    ",
"          r.i.,.' Q Q Q Q W z z z z z z z z z z h $ % % $ 1 u.u.u.u.u.i.t.    ",
"          * 4 T.C.R ! Q / ^ [ / / ! ! ! ! ! ! [ e   X O   i T.T.T.T.T.m       ",
"            4 Y.l.6 8 8 8 8 8 8 7 l ! Q R 0 8 7 V h.f.f.g.a.C C N C C ,       ",
"            5 Y.h.X $ $ $ % % $ o w ^ Q W = $ X ,.T.T.T.T.V.                  ",
"            4 T.g.  $ O h.H.H.V.D.H.L.J.Z.1 $   ,.T.F , 5 4                   ",
"            5 Y.j.* i i h.V.B.V.B.B.B.K.U.i 2 i ,.H.N                         ",
"            4 T.C.T z.T.M     -       v.T._ X.T.a.                            ",
"            , s.y.e ' d.5 .   @ =   . r.s.l ~ d.Z                             ",
"                                                                              ",
"                                                                              ",
"                                                                              "
};
